<svg width="26" height="20" viewBox="0 0 26 20" fill="none" xmlns="http://www.w3.org/2000/svg">
<path d="M0 3.33333C0 2.44928 0.34241 1.60143 0.951903 0.97631C1.5614 0.351189 2.38805 0 3.25 0H22.75C23.612 0 24.4386 0.351189 25.0481 0.97631C25.6576 1.60143 26 2.44928 26 3.33333V11.6667H0V3.33333ZM18.6875 5C18.472 5 18.2653 5.0878 18.113 5.24408C17.9606 5.40036 17.875 5.61232 17.875 5.83333V7.5C17.875 7.72101 17.9606 7.93297 18.113 8.08926C18.2653 8.24554 18.472 8.33333 18.6875 8.33333H21.9375C22.153 8.33333 22.3597 8.24554 22.512 8.08926C22.6644 7.93297 22.75 7.72101 22.75 7.5V5.83333C22.75 5.61232 22.6644 5.40036 22.512 5.24408C22.3597 5.0878 22.153 5 21.9375 5H18.6875ZM0 15V16.6667C0 17.5507 0.34241 18.3986 0.951903 19.0237C1.5614 19.6488 2.38805 20 3.25 20H22.75C23.612 20 24.4386 19.6488 25.0481 19.0237C25.6576 18.3986 26 17.5507 26 16.6667V15H0Z" fill="#2B2B2B"/>
</svg>
