<svg width="21" height="21" viewBox="0 0 21 21" fill="none" xmlns="http://www.w3.org/2000/svg">
<g clip-path="url(#clip0_82_363)">
<path d="M11.8781 0.570937C11.1169 -0.190312 9.88312 -0.190312 9.12187 0.570937L5.31169 4.38244L10.5 9.57206L15.6896 4.38244L11.8768 0.570937H11.8781ZM16.6162 5.31037L11.4292 10.5L16.6189 15.6896L20.4304 11.8768C21.1916 11.1156 21.1916 9.88313 20.4304 9.12319L16.6189 5.31037H16.6162ZM15.6896 16.6162L10.5 11.4292L5.31037 16.6189L9.12319 20.4304C9.88444 21.1916 11.1169 21.1916 11.8768 20.4304L15.6896 16.6189V16.6162ZM4.38375 15.6896L9.57075 10.5L4.38244 5.31037L0.570937 9.12319C-0.190312 9.88444 -0.190312 11.1169 0.570937 11.8768L4.38244 15.6896H4.38375Z" fill="black"/>
</g>
<defs>
<clipPath id="clip0_82_363">
<rect width="21" height="21" fill="white"/>
</clipPath>
</defs>
</svg>
