<svg width="31" height="24" viewBox="0 0 31 24" fill="none" xmlns="http://www.w3.org/2000/svg">
<path d="M25.9141 0.329686C26.3694 -0.109888 27.1056 -0.109888 27.5173 0.32964L30.6173 3.33068C30.8789 3.54172 31 3.82827 31 4.12654C31 4.42528 30.8789 4.71323 30.6173 4.88207L27.5173 7.88353C27.1056 8.36189 26.3694 8.36189 25.9141 7.88353C25.4636 7.4849 25.4636 6.77205 25.9141 6.33121L27.033 5.21035H18.6C17.9558 5.21035 17.4375 4.74606 17.4375 4.12654C17.4375 3.50514 17.9558 3.00099 18.6 3.00099L27.033 2.95925L25.9141 1.9214C25.4636 1.48197 25.4636 0.76912 25.9141 0.329686ZM5.04234 17.6383L3.96897 18.7592L12.3564 18.717C13.0442 18.717 13.5189 19.261 13.5189 19.8425C13.5189 20.5038 13.0442 20.9681 12.3564 20.9681L3.96945 21.0103L5.04234 22.0889C5.53641 22.5298 5.53641 23.2426 5.04234 23.6412C4.63062 24.1196 3.89437 24.1196 3.44052 23.6412L0.340467 20.6398C0.12245 20.4709 -4.84231e-05 20.1849 1.43592e-08 19.8425C1.43592e-08 19.5846 0.122498 19.2985 0.340516 19.0874L3.44052 16.086C3.89437 15.6498 4.63062 15.6498 5.04234 16.086C5.53641 16.5268 5.53641 17.2397 5.04234 17.6383ZM4.60641 3.00146H16.367C16.183 3.33819 16.0812 3.72087 16.0812 4.0848C16.0812 5.47298 17.2098 6.52349 18.6 6.52349H23.3033C23.4631 7.38642 23.9717 8.08988 24.6741 8.53072C24.7564 8.64328 24.8533 8.75114 24.955 8.85432C25.9383 9.80635 27.5367 9.80635 28.52 8.85432L29.45 7.94919V18.0088C29.45 19.6643 28.0598 21.0103 26.35 21.0103H14.633C14.817 20.6726 14.8752 20.2927 14.8752 19.8425C14.8752 18.5387 13.7902 17.4038 12.3564 17.4038L7.69672 17.446C7.53203 16.6253 7.02828 15.9218 6.32594 15.481C6.24359 15.3684 6.14672 15.2606 6.045 15.1574C5.06172 14.2054 3.46522 14.2054 2.48145 15.1574L1.50641 16.0625V6.00293C1.50641 4.34509 2.93773 3.00146 4.60641 3.00146ZM4.60641 9.00439C6.35984 9.00439 7.70641 7.65842 7.70641 6.00293H4.60641V9.00439ZM26.35 18.0088V15.0073C24.6402 15.0073 23.25 16.3533 23.25 18.0088H26.35ZM15.4564 16.5081C18.0672 16.5081 20.15 14.4914 20.15 12.0059C20.15 9.47806 18.0672 7.50366 15.4564 7.50366C12.8892 7.50366 10.8064 9.47806 10.8064 12.0059C10.8064 14.4914 12.8892 16.5081 15.4564 16.5081Z" fill="#2B2B2B"/>
</svg>
