<svg width="8" height="9" viewBox="0 0 8 9" fill="none" xmlns="http://www.w3.org/2000/svg">
<path d="M3.2 6.5L1.2 4.5L1.764 3.932L3.2 5.368L6.236 2.332L6.8 2.9M4 0.5C3.47471 0.5 2.95457 0.603463 2.46927 0.804482C1.98396 1.0055 1.54301 1.30014 1.17157 1.67157C0.421427 2.42172 0 3.43913 0 4.5C0 5.56087 0.421427 6.57828 1.17157 7.32843C1.54301 7.69986 1.98396 7.9945 2.46927 8.19552C2.95457 8.39654 3.47471 8.5 4 8.5C5.06087 8.5 6.07828 8.07857 6.82843 7.32843C7.57857 6.57828 8 5.56087 8 4.5C8 3.97471 7.89654 3.45457 7.69552 2.96927C7.4945 2.48396 7.19986 2.04301 6.82843 1.67157C6.45699 1.30014 6.01604 1.0055 5.53073 0.804482C5.04543 0.603463 4.52529 0.5 4 0.5Z" fill="#0CC260"/>
</svg>
